<svg width="45" height="52" viewBox="0 0 45 52" fill="none" xmlns="http://www.w3.org/2000/svg">
<path d="M29.7031 4.77312L32.0267 0.679492C32.0564 0.627037 32.0752 0.56938 32.0821 0.509813C32.089 0.450245 32.0839 0.389934 32.0669 0.332322C32.0499 0.27471 32.0215 0.220926 31.9832 0.174041C31.945 0.127155 31.8977 0.088087 31.8439 0.0590662C31.7902 0.0300454 31.7312 0.0116404 31.6702 0.00490227C31.6092 -0.00183591 31.5474 0.00322469 31.4884 0.019795C31.4294 0.0363652 31.3743 0.0641206 31.3263 0.101477C31.2783 0.138833 31.2383 0.185058 31.2086 0.237512L28.8608 4.37368C26.8566 3.5156 24.692 3.07258 22.5036 3.07258C20.3153 3.07258 18.1507 3.5156 16.1465 4.37368L13.7987 0.237512C13.7387 0.130949 13.6377 0.052032 13.5181 0.0181236C13.3985 -0.0157848 13.27 -0.0019076 13.1609 0.0567025C13.0518 0.115313 12.971 0.213855 12.9362 0.33065C12.9015 0.447446 12.9157 0.572928 12.9757 0.679492L15.2993 4.77312C13.0885 5.83787 11.2206 7.47653 9.9005 9.50941C8.58038 11.5423 7.859 13.8909 7.81546 16.2977H37.1918C37.1478 13.8904 36.4257 11.5415 35.1047 9.50852C33.7837 7.47559 31.9148 5.83721 29.7031 4.77312ZM15.7253 11.0483C15.4825 11.0483 15.2452 10.9779 15.0433 10.8462C14.8414 10.7144 14.6842 10.5271 14.5914 10.308C14.4985 10.0889 14.4744 9.84784 14.5219 9.61533C14.5695 9.38281 14.6866 9.1693 14.8585 9.00181C15.0303 8.83432 15.2492 8.72038 15.4874 8.67441C15.7256 8.62844 15.9724 8.6525 16.1966 8.74356C16.4208 8.83462 16.6123 8.98858 16.7468 9.18595C16.8814 9.38332 16.9529 9.61524 16.9525 9.85234C16.9518 10.1697 16.8222 10.4739 16.5922 10.6981C16.3621 10.9224 16.0504 11.0483 15.7253 11.0483ZM29.2844 11.0483C29.0416 11.0483 28.8042 10.9779 28.6024 10.8462C28.4005 10.7144 28.2432 10.5271 28.1504 10.308C28.0576 10.0889 28.0334 9.84784 28.081 9.61533C28.1285 9.38281 28.2456 9.1693 28.4175 9.00181C28.5894 8.83432 28.8083 8.72038 29.0465 8.67441C29.2847 8.62844 29.5315 8.6525 29.7557 8.74356C29.9798 8.83462 30.1713 8.98858 30.3059 9.18595C30.4404 9.38332 30.512 9.61524 30.5115 9.85234C30.5109 10.1697 30.3813 10.4739 30.1512 10.6981C29.9212 10.9224 29.6094 11.0483 29.2844 11.0483ZM7.81062 38.2218C7.80998 38.6781 7.90159 39.13 8.0802 39.5517C8.25881 39.9734 8.5209 40.3565 8.85145 40.6791C9.182 41.0016 9.5745 41.2573 10.0064 41.4314C10.4384 41.6056 10.9013 41.6947 11.3686 41.6938H13.7236V48.7844C13.7236 49.6372 14.0706 50.4551 14.6881 51.0581C15.3057 51.6612 16.1432 51.9999 17.0166 51.9999C17.8899 51.9999 18.7275 51.6612 19.3451 51.0581C19.9626 50.4551 20.3095 49.6372 20.3095 48.7844V41.6938H24.7001V48.7844C24.7001 49.6369 25.0469 50.4545 25.6643 51.0573C26.2816 51.6601 27.1189 51.9988 27.9919 51.9988C28.8649 51.9988 29.7022 51.6601 30.3195 51.0573C30.9368 50.4545 31.2836 49.6369 31.2836 48.7844V41.6938H33.6411C34.1078 41.6941 34.57 41.6046 35.0012 41.4303C35.4324 41.256 35.8242 41.0005 36.1542 40.6782C36.4842 40.356 36.746 39.9734 36.9244 39.5523C37.1029 39.1312 37.1945 38.6799 37.1942 38.2241V17.4322H7.81062V38.2218ZM3.29174 16.8791C2.41869 16.8804 1.5818 17.2197 0.964688 17.8228C0.347576 18.4259 0.000640065 19.2433 0 20.0959V33.4947C-6.44143e-09 33.9168 0.0851431 34.3348 0.250568 34.7248C0.415994 35.1148 0.658462 35.4691 0.964128 35.7676C1.26979 36.0661 1.63267 36.3029 2.03204 36.4644C2.43142 36.626 2.85946 36.7091 3.29174 36.7091C3.72402 36.7091 4.15206 36.626 4.55143 36.4644C4.9508 36.3029 5.31368 36.0661 5.61935 35.7676C5.92502 35.4691 6.16748 35.1148 6.33291 34.7248C6.49833 34.3348 6.58348 33.9168 6.58348 33.4947V20.0959C6.5822 19.2437 6.23498 18.4269 5.61793 17.8243C5.00089 17.2218 4.16437 16.8827 3.29174 16.8815V16.8791ZM41.7083 16.8791C40.8352 16.8804 39.9983 17.2197 39.3812 17.8228C38.7641 18.4259 38.4172 19.2433 38.4165 20.0959V33.4947C38.4165 33.9168 38.5017 34.3348 38.6671 34.7248C38.8325 35.1148 39.075 35.4691 39.3807 35.7676C39.6863 36.0661 40.0492 36.3029 40.4486 36.4644C40.8479 36.626 41.276 36.7091 41.7083 36.7091C42.1405 36.7091 42.5686 36.626 42.968 36.4644C43.3673 36.3029 43.7302 36.0661 44.0359 35.7676C44.3415 35.4691 44.584 35.1148 44.7494 34.7248C44.9149 34.3348 45 33.9168 45 33.4947V20.0959C44.9987 19.2437 44.6515 18.4269 44.0345 17.8243C43.4174 17.2218 42.5809 16.8827 41.7083 16.8815V16.8791Z" fill="#3ACC74"/>
</svg>
