<svg width="47" height="47" viewBox="0 0 47 47" fill="none" xmlns="http://www.w3.org/2000/svg">
<path d="M46.4172 0.351676C46.5991 0.498476 46.7459 0.684126 46.8467 0.895016C46.9476 1.10591 47 1.33669 47 1.57045V21.9355H21.9333V5.00431L45.1043 0.0352347C45.3332 -0.0141758 45.5702 -0.0116798 45.7979 0.0425392C46.0256 0.0967582 46.2383 0.201322 46.4203 0.348543L46.4172 0.351676ZM18.8 5.67479L1.23767 9.43762C0.887217 9.51289 0.573175 9.70604 0.347939 9.98486C0.122703 10.2637 -0.000106963 10.6113 6.99027e-08 10.9697V21.9355H18.8V5.67479ZM6.99027e-08 25.0686V39.1675C5.72581e-05 39.5449 0.136394 39.9096 0.383937 40.1946C0.63148 40.4795 0.973584 40.6655 1.34733 40.7183L18.8 43.2123V25.0686H6.99027e-08ZM21.9333 43.6603L45.214 46.9845C45.436 47.0159 45.6622 46.9993 45.8773 46.9357C46.0924 46.8722 46.2913 46.7632 46.4606 46.6162C46.6299 46.4692 46.7657 46.2875 46.8587 46.0835C46.9518 45.8795 47 45.6579 47 45.4336V25.0686H21.9333V43.6603Z" fill="#00C1FE"/>
</svg>
