<svg width="44" height="38" viewBox="0 0 44 38" fill="none" xmlns="http://www.w3.org/2000/svg">
<path d="M21.318 26.7723L17.5652 22.7989L30.0153 11.7457L32.2337 14.1632L21.318 26.7723ZM37.5192 38C41.4425 34.0266 44 28.4991 44 22.2809C44 10.019 34.1092 0 22 0C9.89083 0 0 10.019 0 22.2809C0 28.5009 2.387 34.0266 6.48083 38L9.54983 34.89C6.31033 31.6091 4.43483 27.2903 4.43483 22.2827C4.43121 19.9454 4.88305 17.6303 5.76446 15.4701C6.64586 13.3099 7.93951 11.3471 9.57125 9.69421C11.203 8.04129 13.1408 6.73072 15.2735 5.83761C17.4063 4.9445 19.6921 4.48641 22 4.48959C24.3076 4.48642 26.5931 4.94438 28.7256 5.83726C30.8581 6.73014 32.7957 8.04037 34.4274 9.6929C36.0591 11.3454 37.3529 13.3078 38.2345 15.4675C39.1161 17.6273 39.5683 19.942 39.5652 22.279C39.5652 27.1158 37.5192 31.6073 34.4502 34.8881L37.5192 38Z" fill="#00FFD1"/>
</svg>
