<svg width="46" height="50" viewBox="0 0 46 50" fill="none" xmlns="http://www.w3.org/2000/svg">
<path d="M41.2078 28.8327H4.12532C3.03122 28.8327 1.98193 29.2673 1.20828 30.0409C0.434631 30.8146 0 31.8639 0 32.958V45.3133C0 45.8551 0.106705 46.3915 0.314021 46.892C0.521338 47.3925 0.825207 47.8473 1.20828 48.2304C1.59135 48.6134 2.04612 48.9173 2.54663 49.1246C3.04713 49.332 3.58357 49.4387 4.12532 49.4387H41.2078C42.302 49.4387 43.3512 49.004 44.1249 48.2304C44.8985 47.4567 45.3332 46.4074 45.3332 45.3133V32.958C45.3332 31.8639 44.8985 30.8146 44.1249 30.0409C43.3512 29.2673 42.302 28.8327 41.2078 28.8327ZM14.4242 42.2266C14.4317 42.6345 14.3569 43.0399 14.2043 43.4183C14.0516 43.7967 13.8242 44.1404 13.5357 44.429C13.2472 44.7175 12.9034 44.9449 12.525 45.0976C12.1466 45.2502 11.7413 45.325 11.3333 45.3175H4.1212V32.9539H11.3333C11.7413 32.9463 12.1466 33.0211 12.525 33.1738C12.9034 33.3264 13.2472 33.5538 13.5357 33.8424C13.8242 34.1309 14.0516 34.4746 14.2043 34.8531C14.3569 35.2315 14.4317 35.6368 14.4242 36.0448V42.2266ZM27.8181 45.3175H25.3454L20.0908 38.1054V45.3175H17.5151V32.9539H20.0908L25.2423 40.166V32.9539H27.8181V45.3175ZM41.212 36.086H33.9999V37.6108H39.1514C39.6979 37.6108 40.222 37.8279 40.6084 38.2144C40.9949 38.6008 41.212 39.1249 41.212 39.6714V43.2569C41.212 43.8034 40.9949 44.3275 40.6084 44.7139C40.222 45.1004 39.6979 45.3175 39.1514 45.3175H30.909V42.2266H38.1417V40.7017H32.9696C32.4231 40.7017 31.899 40.4846 31.5125 40.0982C31.1261 39.7117 30.909 39.1876 30.909 38.6411V35.0145C30.909 34.468 31.1261 33.9438 31.5125 33.5574C31.899 33.171 32.4231 32.9539 32.9696 32.9539H41.212V36.086ZM6.71755 24.7115C6.37095 23.3648 6.19102 21.9808 6.1818 20.5903C6.19102 19.1998 6.37095 17.8157 6.71755 16.4691H13.6824C13.5028 17.8357 13.4065 19.212 13.3939 20.5903C13.4065 21.9686 13.5028 23.3449 13.6824 24.7115H17.8448C17.6412 23.3468 17.5311 21.9699 17.5151 20.5903C17.5302 19.2106 17.6404 17.8336 17.8448 16.4691H27.4884C27.6927 17.8336 27.8029 19.2106 27.8181 20.5903C27.802 21.9699 27.6919 23.3468 27.4884 24.7115H31.6508C31.8303 23.3449 31.9267 21.9686 31.9393 20.5903C31.9267 19.212 31.8304 17.8357 31.6508 16.4691H38.6156C38.9623 17.8157 39.1422 19.1998 39.1514 20.5903C39.1422 21.9808 38.9623 23.3649 38.6156 24.7115H42.8584C43.4669 21.7185 43.4025 18.6276 42.6698 15.6626C41.9371 12.6975 40.5544 9.9324 38.6218 7.56733C36.6893 5.20227 34.2551 3.2964 31.4955 1.98761C28.7359 0.678833 25.7198 -0.00012207 22.6656 -0.00012207C19.6113 -0.00012207 16.5953 0.678833 13.8356 1.98761C11.076 3.2964 8.64185 5.20227 6.70926 7.56733C4.77667 9.9324 3.394 12.6975 2.6613 15.6626C1.92859 18.6276 1.86418 21.7185 2.47272 24.7115H6.71755ZM36.9259 12.3479H30.8472C30.2022 9.79574 29.2473 7.33217 28.0035 5.01215C31.7623 6.30621 34.9296 8.91023 36.9259 12.3479ZM22.6666 4.18791C24.3975 6.68513 25.7256 9.43866 26.6023 12.3479H18.7308C19.6076 9.43866 20.9357 6.68513 22.6666 4.18791ZM17.3296 5.01215C16.0859 7.33215 15.1309 9.79573 14.486 12.3479H8.40724C10.3974 8.90499 13.5669 6.29914 17.3296 5.01215Z" fill="#797979"/>
</svg>
