<svg width="44" height="44" viewBox="0 0 44 44" fill="none" xmlns="http://www.w3.org/2000/svg">
<path d="M31.592 26.3999C31.768 24.9479 31.9 23.4959 31.9 21.9999C31.9 20.5039 31.768 19.0519 31.592 17.5999H39.028C39.38 19.0079 39.6 20.4819 39.6 21.9999C39.6 23.5179 39.38 24.9919 39.028 26.3999M27.698 38.6319C29.018 36.1899 30.03 33.5499 30.734 30.7999H37.224C35.0926 34.4701 31.7111 37.2503 27.698 38.6319ZM27.148 26.3999H16.852C16.632 24.9479 16.5 23.4959 16.5 21.9999C16.5 20.5039 16.632 19.0299 16.852 17.5999H27.148C27.346 19.0299 27.5 20.5039 27.5 21.9999C27.5 23.4959 27.346 24.9479 27.148 26.3999ZM22 39.5119C20.174 36.8719 18.7 33.9459 17.798 30.7999H26.202C25.3 33.9459 23.826 36.8719 22 39.5119ZM13.2 13.1999H6.776C8.88548 9.51981 12.2646 6.73521 16.28 5.36794C14.96 7.80994 13.97 10.4499 13.2 13.1999ZM6.776 30.7999H13.2C13.97 33.5499 14.96 36.1899 16.28 38.6319C12.273 37.2496 8.89866 34.4689 6.776 30.7999ZM4.972 26.3999C4.62 24.9919 4.4 23.5179 4.4 21.9999C4.4 20.4819 4.62 19.0079 4.972 17.5999H12.408C12.232 19.0519 12.1 20.5039 12.1 21.9999C12.1 23.4959 12.232 24.9479 12.408 26.3999M22 4.46594C23.826 7.10594 25.3 10.0539 26.202 13.1999H17.798C18.7 10.0539 20.174 7.10594 22 4.46594ZM37.224 13.1999H30.734C30.0454 10.4751 29.0259 7.84491 27.698 5.36794C31.746 6.75394 35.112 9.54794 37.224 13.1999ZM22 -6.10352e-05C9.834 -6.10352e-05 0 9.89994 0 21.9999C0 27.8347 2.31785 33.4305 6.44365 37.5563C8.48654 39.5992 10.9118 41.2197 13.581 42.3253C16.2501 43.4309 19.1109 43.9999 22 43.9999C27.8348 43.9999 33.4305 41.6821 37.5564 37.5563C41.6822 33.4305 44 27.8347 44 21.9999C44 19.1109 43.431 16.2501 42.3254 13.5809C41.2197 10.9117 39.5992 8.48648 37.5564 6.44359C35.5135 4.4007 33.0882 2.78019 30.419 1.67459C27.7499 0.568986 24.8891 -6.10352e-05 22 -6.10352e-05Z" fill="#DE4848"/>
</svg>
