<svg width="37" height="27" viewBox="0 0 37 27" fill="none" xmlns="http://www.w3.org/2000/svg">
<path d="M0.137695 26.7843V22.1176C0.137695 21.1732 0.381029 20.3048 0.867695 19.5126C1.35325 18.7215 1.99881 18.1176 2.80436 17.7009C4.52658 16.8398 6.27658 16.1937 8.05436 15.7626C9.83214 15.3326 11.6377 15.1176 13.471 15.1176C15.3044 15.1176 17.1099 15.3326 18.8877 15.7626C20.6655 16.1937 22.4155 16.8398 24.1377 17.7009C24.9432 18.1176 25.5888 18.7215 26.0744 19.5126C26.561 20.3048 26.8044 21.1732 26.8044 22.1176V26.7843H0.137695ZM30.1377 26.7843V21.7843C30.1377 20.5621 29.7977 19.3882 29.1177 18.2626C28.4366 17.1382 27.471 16.1732 26.221 15.3676C27.6377 15.5343 28.971 15.8187 30.221 16.2209C31.471 16.6243 32.6377 17.1176 33.721 17.7009C34.721 18.2565 35.4849 18.8743 36.0127 19.5543C36.5405 20.2354 36.8044 20.9787 36.8044 21.7843V26.7843H30.1377ZM13.471 13.4509C11.6377 13.4509 10.0683 12.7982 8.76269 11.4926C7.45714 10.1871 6.80436 8.61761 6.80436 6.78428C6.80436 4.95095 7.45714 3.3815 8.76269 2.07595C10.0683 0.770393 11.6377 0.117615 13.471 0.117615C15.3044 0.117615 16.8738 0.770393 18.1794 2.07595C19.4849 3.3815 20.1377 4.95095 20.1377 6.78428C20.1377 8.61761 19.4849 10.1871 18.1794 11.4926C16.8738 12.7982 15.3044 13.4509 13.471 13.4509ZM30.1377 6.78428C30.1377 8.61761 29.4849 10.1871 28.1794 11.4926C26.8738 12.7982 25.3044 13.4509 23.471 13.4509C23.1655 13.4509 22.7766 13.4165 22.3044 13.3476C21.8321 13.2776 21.4432 13.2009 21.1377 13.1176C21.8877 12.2287 22.4638 11.2426 22.866 10.1593C23.2694 9.07595 23.471 7.95095 23.471 6.78428C23.471 5.61761 23.2694 4.49261 22.866 3.40928C22.4638 2.32595 21.8877 1.33984 21.1377 0.450948C21.5266 0.312059 21.9155 0.221504 22.3044 0.179282C22.6932 0.138171 23.0821 0.117615 23.471 0.117615C25.3044 0.117615 26.8738 0.770393 28.1794 2.07595C29.4849 3.3815 30.1377 4.95095 30.1377 6.78428Z" fill="white"/>
</svg>
