<svg width="35" height="35" viewBox="0 0 35 35" fill="none" xmlns="http://www.w3.org/2000/svg">
<path d="M18.831 1.32455C19.1709 0.985773 19.6271 0.789088 20.1068 0.77444C20.5864 0.759793 21.0537 0.92828 21.4137 1.24568C21.7737 1.56308 21.9993 2.0056 22.0448 2.48335C22.0903 2.9611 21.9523 3.43826 21.6587 3.81792L21.5019 3.99547L20.7199 4.77748H24.8888C26.3342 4.7774 27.725 5.32966 28.7766 6.32126C29.8283 7.31287 30.4613 8.66885 30.5461 10.1118L30.5555 10.4442V23.9878C31.8157 24.4338 32.8777 25.3109 33.5539 26.4641C34.2301 27.6172 34.477 28.9723 34.251 30.2898C34.025 31.6074 33.3407 32.8027 32.3188 33.6646C31.297 34.5265 30.0034 34.9995 28.6666 35.0001C27.3595 35.0006 26.0924 34.5491 25.08 33.7222C24.0677 32.8953 23.3723 31.7438 23.1118 30.4629C22.8512 29.182 23.0415 27.8504 23.6504 26.6937C24.2593 25.537 25.2493 24.6265 26.4528 24.1162L26.7777 23.9878V10.4442C26.7776 9.98157 26.6078 9.53503 26.3003 9.18929C25.9929 8.84355 25.5693 8.62267 25.1098 8.56854L24.8888 8.55532H20.7199L21.5019 9.33733C21.8443 9.67647 22.0441 10.1336 22.0605 10.6153C22.0768 11.0969 21.9084 11.5666 21.5898 11.9281C21.2712 12.2897 20.8265 12.5158 20.3466 12.5602C19.8668 12.6046 19.3881 12.4639 19.0086 12.1669L18.831 12.0083L14.8246 8.00375C14.4986 7.67863 14.3026 7.24563 14.2734 6.78613C14.2441 6.32664 14.3837 5.87229 14.666 5.5085L14.8246 5.33094L18.8291 1.32455H18.831ZM5.99961 0.999652C7.30675 0.999238 8.57384 1.45073 9.5862 2.27763C10.5986 3.10453 11.2939 4.25599 11.5544 5.5369C11.815 6.81782 11.6247 8.14942 11.0158 9.30608C10.4069 10.4627 9.41686 11.3733 8.21342 11.8836L7.88852 12.012V23.9915C9.14605 24.4395 10.2052 25.3168 10.8792 26.4691C11.5533 27.6213 11.7992 28.9745 11.5734 30.2902C11.3476 31.6059 10.6648 32.7997 9.64516 33.6613C8.62553 34.5229 7.33453 34.997 5.99961 35.0001C4.69246 35.0006 3.42537 34.5491 2.41302 33.7222C1.40067 32.8953 0.70531 31.7438 0.44477 30.4629C0.18423 29.182 0.374528 27.8504 0.98342 26.6937C1.59231 25.537 2.58236 24.6265 3.7858 24.1162L4.11069 23.9878V12.0101C2.85184 11.5631 1.79129 10.6859 1.11615 9.53322C0.441 8.38052 0.194633 7.02643 0.420509 5.7098C0.646384 4.39317 1.32999 3.19861 2.35073 2.33686C3.37146 1.4751 4.66375 1.00152 5.99961 0.999652Z" fill="#0066FF"/>
</svg>
