<svg width="38" height="28" viewBox="0 0 38 28" fill="none" xmlns="http://www.w3.org/2000/svg">
<path d="M9.5 28C6.8803 28 4.64233 27.0769 2.78609 25.2308C0.928697 23.3846 0 21.1282 0 18.4615C0 16.1758 0.676515 14.1392 2.02955 12.3516C3.38258 10.5641 5.15303 9.42125 7.34091 8.92308C8.00303 6.54945 9.234 4.55678 11.0338 2.94506C12.8325 1.33333 14.9121 0.351648 17.2727 0V14.1978L15.7182 12.6593C15.4015 12.337 15.006 12.1758 14.5315 12.1758C14.056 12.1758 13.6455 12.3516 13.3 12.7033C12.9833 13.0256 12.825 13.4359 12.825 13.9341C12.825 14.4322 12.9833 14.8425 13.3 15.1648L17.7909 19.7363C18.1364 20.0879 18.5394 20.2637 19 20.2637C19.4606 20.2637 19.8636 20.0879 20.2091 19.7363L24.7 15.1648C25.0167 14.8425 25.1825 14.4393 25.1975 13.9552C25.2113 13.4722 25.0455 13.0549 24.7 12.7033C24.3833 12.381 23.9878 12.2122 23.5134 12.1969C23.0378 12.1829 22.6273 12.337 22.2818 12.6593L20.7273 14.1978V0C23.6924 0.410256 26.1613 1.76528 28.1338 4.06506C30.1052 6.36601 31.0909 9.0696 31.0909 12.1758C33.0773 12.4103 34.7257 13.2818 36.0361 14.7903C37.3454 16.3001 38 18.0659 38 20.0879C38 22.2857 37.2446 24.1541 35.7338 25.6932C34.2219 27.2311 32.3864 28 30.2273 28H9.5Z" fill="#D624A4"/>
</svg>
