<svg width="319" height="157" viewBox="0 0 319 157" fill="none" xmlns="http://www.w3.org/2000/svg">
<path d="M104.392 46.373C106.063 45.2367 107.567 44.4681 108.904 44.0671C110.307 43.5992 112.145 43.3653 114.418 43.3653H120.333C123.274 43.3653 125.446 44.0671 126.85 45.4707C128.32 46.8074 129.055 49.5144 129.055 53.5915V86.5761H137.276C138.747 86.5761 139.482 87.3448 139.482 88.882V97.0029C139.482 98.4733 138.747 99.2085 137.276 99.2085H129.055V111.34C129.055 112.81 128.32 113.545 126.85 113.545H116.523C114.986 113.545 114.217 112.81 114.217 111.34V99.2085H61.482C59.3432 99.2085 57.739 98.6404 56.6696 97.5041C55.6002 96.3679 55.0655 94.8975 55.0655 93.0928V85.4733C55.0655 83.6018 55.3329 82.0645 55.8676 80.8615C56.4023 79.5915 57.4383 78.4219 58.9756 77.3525L104.392 46.373ZM71.608 85.8743C71.608 86.3422 71.8753 86.5761 72.41 86.5761H114.217V57.8023C114.217 57.0671 113.95 56.6995 113.415 56.6995H112.814C112.145 56.6995 111.41 56.9668 110.608 57.5015L72.2095 83.8692C71.8085 84.2034 71.608 84.6712 71.608 85.2728V85.8743ZM199.263 43.3653C204.342 43.3653 208.653 43.8666 212.196 44.8691C215.738 45.8049 218.612 47.3421 220.818 49.481C223.091 51.5529 224.728 54.2599 225.731 57.6018C226.8 60.9437 227.335 65.0208 227.335 69.8332V87.0774C227.335 91.8897 226.8 96.0003 225.731 99.409C224.728 102.751 223.091 105.491 220.818 107.63C218.612 109.702 215.738 111.206 212.196 112.142C208.653 113.077 204.342 113.545 199.263 113.545H176.103C171.024 113.545 166.713 113.077 163.17 112.142C159.628 111.206 156.72 109.702 154.448 107.63C152.242 105.491 150.605 102.751 149.535 99.409C148.533 96.0003 148.031 91.8897 148.031 87.0774V69.8332C148.031 65.0208 148.533 60.9437 149.535 57.6018C150.605 54.2599 152.242 51.5529 154.448 49.481C156.72 47.3421 159.628 45.8049 163.17 44.8691C166.713 43.8666 171.024 43.3653 176.103 43.3653H199.263ZM162.869 86.4759C162.869 89.1494 163.07 91.3885 163.471 93.1931C163.872 94.9309 164.574 96.3345 165.576 97.4039C166.579 98.4065 167.916 99.1417 169.587 99.6095C171.324 100.011 173.497 100.211 176.103 100.211H199.263C201.869 100.211 204.008 100.011 205.679 99.6095C207.417 99.1417 208.787 98.4065 209.79 97.4039C210.792 96.3345 211.494 94.9309 211.895 93.1931C212.296 91.3885 212.497 89.1494 212.497 86.4759V70.4347C212.497 67.7612 212.296 65.5555 211.895 63.8177C211.494 62.08 210.792 60.6763 209.79 59.6069C208.787 58.5375 207.417 57.8023 205.679 57.4013C204.008 56.9334 201.869 56.6995 199.263 56.6995H176.103C173.497 56.6995 171.324 56.9334 169.587 57.4013C167.916 57.8023 166.579 58.5375 165.576 59.6069C164.574 60.6763 163.872 62.08 163.471 63.8177C163.07 65.5555 162.869 67.7612 162.869 70.4347V86.4759ZM292.324 43.3653C299.208 43.3653 304.088 44.7355 306.962 47.4758C309.902 50.2162 311.373 54.3601 311.373 59.9077V64.7201C311.373 70.2676 309.401 74.5118 305.458 77.4527C309.735 80.1931 311.874 84.5041 311.874 90.3859V96.2008C311.874 98.8743 311.573 101.28 310.972 103.419C310.37 105.558 309.368 107.396 307.964 108.933C306.561 110.404 304.723 111.54 302.45 112.342C300.178 113.144 297.404 113.545 294.129 113.545H240.391C238.92 113.545 238.185 112.81 238.185 111.34V102.417C238.185 100.946 238.92 100.211 240.391 100.211H289.617C292.224 100.211 294.095 99.7098 295.232 98.7072C296.435 97.7047 297.036 96.134 297.036 93.9951V90.2856C297.036 88.2136 296.401 86.643 295.131 85.5735C293.928 84.4373 291.656 83.8692 288.314 83.8692H240.992C239.455 83.8692 238.686 83.134 238.686 81.6635V74.5453C238.686 73.0748 239.455 72.3396 240.992 72.3396H288.314C291.656 72.3396 293.928 71.8383 295.131 70.8357C296.334 69.7663 296.936 68.2625 296.936 66.3242V62.8152C296.936 60.6763 296.334 59.1391 295.131 58.2033C293.995 57.2008 292.09 56.6995 289.417 56.6995H240.391C238.92 56.6995 238.185 55.9643 238.185 54.4938V45.5709C238.185 44.1005 238.92 43.3653 240.391 43.3653H292.324Z" fill="white"/>
<path fill-rule="evenodd" clip-rule="evenodd" d="M37.3709 14.7041C35.208 14.9027 30.9112 15.8672 28.4735 16.7017C17.9478 20.3044 9.33149 27.9399 4.28726 38.1346C2.94383 40.8501 1.1915 45.4168 1.49316 45.4168C1.5684 45.4168 2.38447 44.7105 3.30656 43.8474C7.83979 39.6033 14.2719 36.8999 22.5931 35.7412C27.0599 35.1192 36.8797 35.011 47.1413 35.4708C62.1595 36.1435 69.6527 35.9838 76.2841 34.8493C87.3515 32.9561 94.9998 28.2892 100.132 20.2976C101.24 18.5714 102.955 15.2249 102.955 14.7874C102.955 14.5479 39.9454 14.4678 37.3709 14.7041ZM26.9898 43.6736C23.2529 44.0093 18.1466 45.0274 15.1659 46.0313C2.48413 50.302 -2.22571 59.1012 1.7064 71.1779C2.35858 73.181 5.68004 80.0703 5.99342 80.0703C6.08624 80.0703 5.8923 79.0249 5.56206 77.7475C5.18223 76.2783 4.9133 74.4055 4.83001 72.6512C4.65976 69.0615 5.04203 67.5845 6.60432 65.7981C8.79876 63.289 11.6686 62.4914 18.4915 62.4945C20.949 62.4955 25.1579 62.6587 27.8447 62.8573C39.2319 63.6985 44.9064 63.6029 50.5974 62.4736C53.3138 61.9347 56.6162 60.8323 58.6216 59.7948C62.3439 57.869 66.4995 53.8791 68.6038 50.2103C69.7948 48.1336 71.4951 44.1962 71.3239 43.9112C71.2736 43.8278 65.757 43.7369 59.0649 43.7095C52.3727 43.6821 42.995 43.6111 38.2258 43.5516C33.4566 43.4918 28.4004 43.5468 26.9898 43.6736ZM14.9893 65.2725C11.6273 65.7803 9.17834 67.2073 8.05963 69.3106C4.35663 76.2732 15.3293 90.165 30.5316 97.7606C34.0011 99.4943 38.1342 101.091 38.4124 100.805C38.5089 100.705 38.3927 100.511 38.1538 100.374C37.3218 99.8953 32.9615 96.213 31.0856 94.405C26.6337 90.114 23.3032 85.0212 22.2043 80.8236C21.579 78.4348 21.6366 74.8773 22.335 72.788C22.9874 70.8359 24.1525 68.7999 25.5541 67.1629C26.292 66.3008 26.4955 65.9083 26.2761 65.769C25.3538 65.1829 17.7863 64.8501 14.9893 65.2725Z" fill="white"/>
<path d="M130.115 21.7564C130.486 21.7564 130.798 21.8345 131.052 21.9906C131.306 22.1369 131.554 22.4296 131.798 22.8686L136.642 31.6634C136.691 31.761 136.701 31.8439 136.671 31.9122C136.652 31.9707 136.584 32 136.466 32H134.608C134.442 32 134.33 31.9366 134.271 31.8098L133.232 29.922H126.355L125.345 31.8098C125.277 31.9366 125.164 32 125.008 32H123.106C122.979 32 122.901 31.9707 122.872 31.9122C122.852 31.8439 122.867 31.761 122.916 31.6634L127.716 22.8686C127.959 22.4296 128.198 22.1369 128.433 21.9906C128.667 21.8345 128.94 21.7564 129.252 21.7564H130.115ZM127.277 28.2245H132.311L129.984 23.9368C129.945 23.8685 129.891 23.8344 129.823 23.8344H129.735C129.667 23.8344 129.613 23.8685 129.574 23.9368L127.277 28.2245ZM179.996 21.7564C180.23 21.7564 180.425 21.7662 180.581 21.7857C180.737 21.8052 180.874 21.8491 180.991 21.9174C181.108 21.9759 181.22 22.0637 181.328 22.1808C181.435 22.2881 181.557 22.4344 181.694 22.6198L187.137 29.761C187.176 29.8293 187.24 29.8635 187.328 29.8635H187.459C187.537 29.8635 187.576 29.8147 187.576 29.7171V22.0784C187.576 21.8637 187.684 21.7564 187.898 21.7564H189.435C189.649 21.7564 189.757 21.8637 189.757 22.0784V30.4781C189.757 31.0732 189.649 31.4781 189.435 31.6927C189.22 31.8976 188.888 32 188.44 32H187.181C186.957 32 186.767 31.9902 186.61 31.9707C186.464 31.9512 186.332 31.9122 186.215 31.8537C186.098 31.7951 185.981 31.7122 185.864 31.6049C185.757 31.4878 185.63 31.3317 185.484 31.1366L180.025 23.9954C179.967 23.9271 179.903 23.8929 179.835 23.8929H179.703C179.625 23.8929 179.586 23.9417 179.586 24.0393V31.6781C179.586 31.8927 179.479 32 179.264 32H177.728C177.503 32 177.391 31.8927 177.391 31.6781V23.2783C177.391 22.6832 177.499 22.2832 177.713 22.0784C177.928 21.8637 178.259 21.7564 178.708 21.7564H179.996ZM242.343 21.7564C242.568 21.7564 242.68 21.8637 242.68 22.0784V23.5125C242.68 23.7368 242.568 23.849 242.343 23.849H237.748V31.6781C237.748 31.8927 237.641 32 237.427 32H235.831C235.617 32 235.51 31.8927 235.51 31.6781V23.849H230.915C230.69 23.849 230.578 23.7368 230.578 23.5125V22.0784C230.578 21.8637 230.69 21.7564 230.915 21.7564H242.343ZM285.411 21.7564C285.626 21.7564 285.733 21.8637 285.733 22.0784V31.6781C285.733 31.8927 285.626 32 285.411 32H283.831C283.606 32 283.494 31.8927 283.494 31.6781V22.0784C283.494 21.8637 283.606 21.7564 283.831 21.7564H285.411Z" fill="white"/>
<path d="M144.129 139.672V141.621H142.181V139.672H144.129ZM151.178 145.441C151.305 145.441 151.369 145.505 151.369 145.632V147.332C151.369 147.459 151.305 147.523 151.178 147.523H150.318C149.643 147.523 149.089 147.326 148.656 146.931C148.427 147.72 148.045 148.427 147.51 149.051C146.988 149.688 146.351 150.185 145.6 150.541C144.849 150.898 144.04 151.076 143.174 151.076C142.142 151.076 141.187 150.815 140.309 150.293C139.43 149.783 138.73 149.089 138.208 148.211C137.698 147.332 137.444 146.377 137.444 145.345V141.774H139.411V145.231C139.411 145.919 139.577 146.555 139.908 147.141C140.251 147.714 140.71 148.166 141.283 148.497C141.869 148.841 142.499 149.013 143.174 149.013C143.862 149.013 144.492 148.841 145.065 148.497C145.651 148.166 146.109 147.714 146.44 147.141C146.784 146.555 146.956 145.919 146.956 145.231V141.009H148.943V144.085C148.943 144.467 149.076 144.792 149.344 145.059C149.611 145.314 149.936 145.441 150.318 145.441H151.178ZM151.182 147.523C151.055 147.523 150.991 147.459 150.991 147.332V145.632C150.991 145.505 151.055 145.441 151.182 145.441H152.806C153.188 145.441 153.506 145.307 153.761 145.04C154.028 144.772 154.162 144.448 154.162 144.066V140.436H156.13V144.18C156.13 144.792 155.983 145.352 155.69 145.861C155.397 146.371 154.996 146.778 154.487 147.084C153.977 147.377 153.417 147.523 152.806 147.523H151.182ZM151.201 149.28H153.15V151.229H151.201V149.28ZM154.143 149.28H156.072V151.229H154.143V149.28ZM162.904 145.441C163.274 145.441 163.586 145.314 163.84 145.059C164.108 144.792 164.241 144.467 164.241 144.085V135.203H166.209V144.085C166.209 144.467 166.342 144.792 166.61 145.059C166.877 145.314 167.196 145.441 167.565 145.441H168.425C168.552 145.441 168.616 145.505 168.616 145.632V147.332C168.616 147.459 168.552 147.523 168.425 147.523H167.565C167.056 147.523 166.597 147.408 166.19 147.179C165.782 146.937 165.464 146.619 165.235 146.224C165.005 146.619 164.687 146.937 164.28 147.179C163.872 147.408 163.414 147.523 162.904 147.523H158.148V145.441H162.904ZM158.301 135.909L160.211 135.413L162.35 144.199L160.459 144.696L158.301 135.909ZM170.596 136.75H172.544V138.679H170.596V136.75ZM168.418 147.523C168.291 147.523 168.227 147.459 168.227 147.332V145.632C168.227 145.505 168.291 145.441 168.418 145.441H170.443C170.825 145.441 171.15 145.307 171.417 145.04C171.685 144.772 171.819 144.448 171.819 144.066V140.436H173.767V144.18C173.767 144.792 173.62 145.352 173.328 145.861C173.035 146.371 172.634 146.778 172.124 147.084C171.615 147.377 171.054 147.523 170.443 147.523H168.418ZM173.447 134.515C173.447 134.018 173.606 133.617 173.924 133.312C174.243 133.006 174.637 132.853 175.109 132.853H179.235V134.381H175.319C175.166 134.381 175.039 134.432 174.937 134.534C174.835 134.623 174.784 134.751 174.784 134.916V135.757H173.447V134.515ZM175.739 135.909H177.706V147.523H175.739V135.909ZM187.951 151.821C187.148 151.821 186.403 151.617 185.716 151.21C185.041 150.815 184.5 150.274 184.092 149.586C183.697 148.911 183.5 148.173 183.5 147.37V143.149H185.467V147.275C185.467 147.72 185.576 148.128 185.792 148.497C186.021 148.879 186.327 149.179 186.709 149.395C187.091 149.624 187.505 149.739 187.951 149.739H192.172C192.592 149.739 192.936 149.599 193.203 149.319C193.471 149.051 193.605 148.714 193.605 148.306C193.605 147.975 193.503 147.682 193.299 147.428C193.095 147.16 192.828 146.988 192.497 146.912L187.874 145.842V143.684C187.874 143.021 188.04 142.41 188.371 141.85C188.715 141.277 189.173 140.825 189.746 140.494C190.319 140.15 190.943 139.978 191.618 139.978H194.808V141.945H191.599C191.115 141.945 190.701 142.117 190.357 142.461C190.013 142.805 189.842 143.219 189.842 143.703V144.276C190.975 144.53 192.076 144.785 193.146 145.04C193.885 145.244 194.483 145.657 194.942 146.281C195.413 146.905 195.648 147.599 195.648 148.364C195.648 148.988 195.489 149.561 195.171 150.083C194.865 150.618 194.445 151.038 193.91 151.343C193.388 151.662 192.809 151.821 192.172 151.821H187.951ZM201.056 147.523C200.445 147.523 199.885 147.377 199.375 147.084C198.866 146.778 198.465 146.371 198.172 145.861C197.879 145.352 197.733 144.792 197.733 144.18V134.84H199.7V144.066C199.7 144.448 199.834 144.772 200.101 145.04C200.369 145.307 200.687 145.441 201.056 145.441H201.992C202.12 145.441 202.183 145.505 202.183 145.632V147.332C202.183 147.459 202.12 147.523 201.992 147.523H201.056ZM212.119 139.94C212.82 139.94 213.463 140.105 214.048 140.436C214.647 140.767 215.118 141.22 215.462 141.793C215.819 142.366 215.997 142.996 215.997 143.684C215.997 144.384 215.819 145.027 215.462 145.613C215.118 146.199 214.647 146.664 214.048 147.007C213.45 147.351 212.807 147.523 212.119 147.523H201.995C201.868 147.523 201.804 147.459 201.804 147.332V145.632C201.804 145.505 201.868 145.441 201.995 145.441H204.288C203.956 144.932 203.791 144.365 203.791 143.741C203.791 143.104 203.976 142.499 204.345 141.926H203.027V139.94H212.119ZM205.816 143.684C205.816 144.168 205.988 144.581 206.331 144.925C206.675 145.269 207.095 145.441 207.592 145.441C208.063 145.441 208.471 145.269 208.815 144.925C209.158 144.581 209.33 144.168 209.33 143.684C209.33 143.2 209.158 142.786 208.815 142.442C208.484 142.098 208.076 141.926 207.592 141.926C207.095 141.926 206.675 142.098 206.331 142.442C205.988 142.786 205.816 143.2 205.816 143.684ZM212.119 145.441C212.616 145.441 213.036 145.275 213.38 144.944C213.736 144.601 213.915 144.18 213.915 143.684C213.915 143.187 213.736 142.773 213.38 142.442C213.036 142.098 212.616 141.926 212.119 141.926H210.591C210.909 142.487 211.069 143.092 211.069 143.741C211.069 144.352 210.929 144.919 210.648 145.441H212.119ZM235.704 145.441C235.831 145.441 235.895 145.505 235.895 145.632V147.332C235.895 147.459 235.831 147.523 235.704 147.523H234.844C234.335 147.523 233.877 147.415 233.469 147.198C233.074 146.982 232.743 146.676 232.476 146.281C232.119 146.676 231.693 146.988 231.196 147.217C230.699 147.447 230.171 147.561 229.611 147.561C228.91 147.561 228.273 147.389 227.7 147.046C227.14 146.702 226.694 146.231 226.363 145.632C226.045 145.034 225.886 144.384 225.886 143.684V141.926H225.255C224.822 141.926 224.453 142.079 224.147 142.385C223.842 142.69 223.689 143.053 223.689 143.474V152.298H221.722V143.474C221.722 142.837 221.881 142.251 222.199 141.716C222.517 141.169 222.944 140.742 223.479 140.436C224.027 140.118 224.619 139.959 225.255 139.959H229.611C230.311 139.959 230.96 140.124 231.559 140.456C232.157 140.774 232.629 141.22 232.972 141.793C233.316 142.366 233.488 142.996 233.488 143.684V144.085C233.488 144.467 233.622 144.792 233.889 145.059C234.157 145.314 234.475 145.441 234.844 145.441H235.704ZM229.611 145.479C230.12 145.479 230.546 145.307 230.89 144.963C231.234 144.62 231.406 144.193 231.406 143.684C231.406 143.187 231.234 142.767 230.89 142.423C230.546 142.079 230.12 141.907 229.611 141.907H227.834V143.684C227.834 144.193 228.006 144.62 228.35 144.963C228.694 145.307 229.114 145.479 229.611 145.479ZM235.703 147.523C235.576 147.523 235.512 147.459 235.512 147.332V145.632C235.512 145.505 235.576 145.441 235.703 145.441H239.657C240.039 145.441 240.364 145.307 240.631 145.04C240.898 144.772 241.032 144.448 241.032 144.066V140.436H242.981V144.18C242.981 144.792 242.834 145.352 242.541 145.861C242.248 146.371 241.847 146.778 241.338 147.084C240.828 147.377 240.268 147.523 239.657 147.523H235.703ZM236.047 149.261H237.995V151.21H236.047V149.261ZM238.988 149.261H240.937V151.21H238.988V149.261ZM249.308 145.441C249.435 145.441 249.499 145.505 249.499 145.632V147.332C249.499 147.459 249.435 147.523 249.308 147.523H248.449C247.926 147.523 247.474 147.408 247.092 147.179C247.08 148.122 246.927 148.898 246.634 149.51C246.354 150.134 245.908 150.681 245.297 151.152C244.698 151.624 243.839 152.127 242.718 152.661L241.973 151.019C242.903 150.497 243.565 150.083 243.96 149.777C244.367 149.484 244.66 149.128 244.838 148.707C245.029 148.3 245.125 147.74 245.125 147.026V141.009H247.092V144.085C247.092 144.467 247.22 144.792 247.474 145.059C247.742 145.314 248.066 145.441 248.449 145.441H249.308ZM249.302 147.523C249.174 147.523 249.111 147.459 249.111 147.332V145.632C249.111 145.505 249.174 145.441 249.302 145.441H252.95C254.045 145.441 254.962 145.11 255.701 144.448L257.935 142.423L254.803 140.933C254.701 140.882 254.586 140.838 254.459 140.799C254.332 140.748 254.204 140.723 254.077 140.723C253.873 140.723 253.669 140.774 253.466 140.876C253.262 140.965 253.09 141.086 252.95 141.239L251.46 142.939L250.085 141.754L251.594 139.921C251.899 139.564 252.269 139.29 252.702 139.099C253.135 138.896 253.593 138.794 254.077 138.794C254.408 138.794 254.682 138.832 254.898 138.908C255.115 138.972 255.338 139.061 255.567 139.176L259.712 141.124C259.788 141.162 259.903 141.181 260.056 141.181H261.775V143.092H259.846L259.177 143.703V144.085C259.177 144.467 259.311 144.792 259.578 145.059C259.846 145.314 260.164 145.441 260.533 145.441H262.558C262.685 145.441 262.749 145.505 262.749 145.632V147.332C262.749 147.459 262.685 147.523 262.558 147.523H260.533C259.795 147.523 259.171 147.3 258.661 146.855C258.152 146.409 257.834 145.836 257.706 145.135L256.789 145.976C256.242 146.472 255.611 146.855 254.898 147.122C254.185 147.389 253.44 147.523 252.663 147.523H249.302ZM262.603 136.75H264.551V138.679H262.603V136.75ZM265.544 136.75H267.474V138.679H265.544V136.75ZM262.564 147.523C262.437 147.523 262.373 147.459 262.373 147.332V145.632C262.373 145.505 262.437 145.441 262.564 145.441H264.188C264.57 145.441 264.888 145.307 265.143 145.04C265.411 144.772 265.544 144.448 265.544 144.066V140.436H267.512V144.18C267.512 144.792 267.365 145.352 267.072 145.861C266.779 146.371 266.378 146.778 265.869 147.084C265.36 147.377 264.799 147.523 264.188 147.523H262.564ZM274.523 137.323H276.472V139.271H274.523V137.323ZM271.372 151.019C272.301 150.497 272.963 150.083 273.358 149.777C273.766 149.484 274.058 149.128 274.237 148.707C274.428 148.3 274.523 147.74 274.523 147.026V141.009H276.491V147.007C276.491 148.001 276.351 148.816 276.071 149.452C275.79 150.089 275.345 150.643 274.733 151.114C274.135 151.585 273.263 152.101 272.117 152.661L271.372 151.019ZM278.653 134.84H280.621V147.523H278.653V134.84ZM290.919 145.441C291.301 145.441 291.619 145.314 291.874 145.059C292.141 144.804 292.275 144.492 292.275 144.123C292.275 143.868 292.211 143.645 292.084 143.454C291.957 143.251 291.747 143.047 291.454 142.843L287.729 140.284L288.837 138.679L292.867 141.449C293.313 141.78 293.657 142.162 293.899 142.595C294.141 143.015 294.262 143.505 294.262 144.066C294.262 144.702 294.102 145.288 293.784 145.823C293.466 146.345 293.039 146.759 292.504 147.065C291.969 147.37 291.384 147.523 290.747 147.523H286.411V145.441H290.919ZM296.244 134.84H298.211V147.523H296.244V134.84ZM300.639 137.323H302.587V139.271H300.639V137.323ZM297.487 151.019C298.417 150.497 299.079 150.083 299.473 149.777C299.881 149.484 300.174 149.128 300.352 148.707C300.543 148.3 300.639 147.74 300.639 147.026V141.009H302.606V147.007C302.606 148.001 302.466 148.816 302.186 149.452C301.906 150.089 301.46 150.643 300.849 151.114C300.25 151.585 299.378 152.101 298.232 152.661L297.487 151.019ZM302.438 134.515C302.438 134.018 302.597 133.617 302.916 133.312C303.234 133.006 303.629 132.853 304.1 132.853H308.226V134.381H304.31C304.157 134.381 304.03 134.432 303.928 134.534C303.826 134.623 303.775 134.751 303.775 134.916V135.757H302.438V134.515ZM304.73 135.909H306.698V147.523H304.73V135.909Z" fill="white"/>
</svg>
