<svg id="Layer_1" data-name="Layer 1" xmlns="http://www.w3.org/2000/svg" viewBox="0 0 200 200.22"><defs><style>.cls-1{fill:#ebebeb;}.cls-2{fill:#d8d8d7;}.cls-3{fill:#f58220;}.cls-4{fill:#fff;}</style></defs><title>AdvocacyProgram_ITCouncil</title><path class="cls-1" d="M100,200.11a100,100,0,1,1,100-100A100.11,100.11,0,0,1,100,200.11Z" transform="translate(0 0.11)"/><path class="cls-2" d="M100-.11v200h0A100,100,0,0,0,100-.11Z" transform="translate(0 0.11)"/><path class="cls-3" d="M100,182.89a83,83,0,1,1,83-83A83.09,83.09,0,0,1,100,182.89Z" transform="translate(0 0.11)"/><path class="cls-4" d="M78.72,138.39c-13.81-9.61-11.44-29.4,1-46.28,14.85-20.19,34.65-29.76,47.44-17.56,9.4,8.94,6.8,32.72-6.36,49-0.51.66-1.07,1.29-1.62,1.89,1.79-1.82,3.52-3.78,5.2-5.84,17.53-21.74,20.81-48.16,7.37-59s-38.56-2-56.07,19.76-20.84,48.16-7.39,59c7.69,6.19,19.17,5.94,30.86.57C91.34,142.84,84.16,142.18,78.72,138.39Z" transform="translate(0 0.11)"/></svg>